<svg viewBox="0 0 200 220" xmlns="http://www.w3.org/2000/svg" role="img" aria-label="Head of Marketing character">
  <defs>
    <linearGradient id="b" x1="0" y1="0" x2="0" y2="1">
      <stop offset="0%" stop-color="#fff"/><stop offset="100%" stop-color="#e6e8f4"/>
    </linearGradient>
    <radialGradient id="h" cx="34%" cy="28%" r="72%">
      <stop offset="0%" stop-color="#fff"/><stop offset="100%" stop-color="#d8dcf0"/>
    </radialGradient>
    <linearGradient id="a" x1="0" y1="0" x2="1" y2="1">
      <stop offset="0%" stop-color="#8b7cff"/><stop offset="100%" stop-color="#5a45ff"/>
    </linearGradient>
  </defs>
  <ellipse cx="100" cy="206" rx="50" ry="8" fill="#5a45ff" opacity=".14"/>
  <path d="M62 118c-2 28 8 52 38 52s40-24 38-52" fill="url(#a)" opacity=".9"/>
  <rect x="68" y="96" width="64" height="72" rx="22" fill="url(#b)"/>
  <rect x="78" y="112" width="44" height="28" rx="10" fill="url(#a)"/>
  <rect x="58" y="118" width="16" height="36" rx="8" fill="url(#b)"/>
  <rect x="126" y="110" width="16" height="40" rx="8" fill="url(#b)"/>
  <circle cx="148" cy="108" r="9" fill="#ffd56a"/>
  <path d="M148 99v-16M142 90h12" stroke="#5a45ff" stroke-width="3" stroke-linecap="round"/>
  <rect x="76" y="164" width="16" height="28" rx="8" fill="url(#b)"/>
  <rect x="108" y="164" width="16" height="28" rx="8" fill="url(#b)"/>
  <ellipse cx="84" cy="194" rx="11" ry="5" fill="#c5c9dc"/>
  <ellipse cx="116" cy="194" rx="11" ry="5" fill="#c5c9dc"/>
  <circle cx="100" cy="72" r="36" fill="url(#h)"/>
  <rect x="78" y="68" width="44" height="12" rx="6" fill="#1b1d33"/>
  <circle cx="90" cy="74" r="3.2" fill="#7b6cff"/>
  <circle cx="110" cy="74" r="3.2" fill="#7b6cff"/>
  <path d="M78 42l10 14 12-18 12 18 10-14v16H78z" fill="#ffd56a"/>
  <circle cx="78" cy="50" r="5" fill="#fff" opacity=".55"/>
</svg>
