<svg viewBox="0 0 200 220" xmlns="http://www.w3.org/2000/svg" role="img" aria-label="QA character">
  <defs>
    <linearGradient id="b" x1="0" y1="0" x2="0" y2="1"><stop offset="0%" stop-color="#fff"/><stop offset="100%" stop-color="#e6e8f4"/></linearGradient>
    <radialGradient id="h" cx="34%" cy="28%" r="72%"><stop offset="0%" stop-color="#fff"/><stop offset="100%" stop-color="#d8dcf0"/></radialGradient>
    <linearGradient id="a" x1="0" y1="0" x2="1" y2="1"><stop offset="0%" stop-color="#c4b5fd"/><stop offset="100%" stop-color="#6d28d9"/></linearGradient>
  </defs>
  <ellipse cx="100" cy="206" rx="50" ry="8" fill="#6d28d9" opacity=".14"/>
  <rect x="70" y="98" width="60" height="70" rx="22" fill="url(#b)"/>
  <rect x="80" y="114" width="40" height="24" rx="9" fill="url(#a)"/>
  <rect x="56" y="118" width="16" height="36" rx="8" fill="url(#b)"/>
  <rect x="128" y="110" width="16" height="42" rx="8" fill="url(#b)"/>
  <rect x="140" y="86" width="34" height="40" rx="6" fill="#fff" stroke="#6d28d9" stroke-width="3"/>
  <path d="M148 102l6 6 12-14" fill="none" stroke="#6d28d9" stroke-width="3.2" stroke-linecap="round"/>
  <path d="M148 116l6 6 12-14" fill="none" stroke="#c4b5fd" stroke-width="3.2" stroke-linecap="round"/>
  <rect x="78" y="164" width="16" height="28" rx="8" fill="url(#b)"/>
  <rect x="106" y="164" width="16" height="28" rx="8" fill="url(#b)"/>
  <ellipse cx="86" cy="194" rx="11" ry="5" fill="#c5c9dc"/>
  <ellipse cx="114" cy="194" rx="11" ry="5" fill="#c5c9dc"/>
  <circle cx="100" cy="72" r="34" fill="url(#h)"/>
  <rect x="80" y="68" width="40" height="10" rx="5" fill="#1b1d33"/>
  <circle cx="92" cy="73" r="2.6" fill="#c4b5fd"/>
  <circle cx="108" cy="73" r="2.6" fill="#c4b5fd"/>
</svg>
